<mxfile host="app.diagrams.net" modified="2023-11-22T12:34:08.489Z" agent="Mozilla/5.0 (X11; Linux x86_64) AppleWebKit/537.36 (KHTML, like Gecko) Chrome/117.0.0.0 Safari/537.36 Edg/117.0.2045.40" etag="og-mPs4Ct7SJI_t6A_US" version="22.1.3" type="github">
  <diagram name="第 1 页" id="eHBOQSYxi-pyYDhIbqoa">
    <mxGraphModel dx="1312" dy="775" grid="1" gridSize="10" guides="1" tooltips="1" connect="1" arrows="1" fold="1" page="1" pageScale="1" pageWidth="827" pageHeight="1169" math="0" shadow="0">
      <root>
        <mxCell id="0" />
        <mxCell id="1" parent="0" />
        <mxCell id="OrLhelgsTvvoCgODhbLQ-15" value="" style="edgeStyle=orthogonalEdgeStyle;rounded=0;orthogonalLoop=1;jettySize=auto;html=1;" edge="1" parent="1" source="OrLhelgsTvvoCgODhbLQ-1" target="OrLhelgsTvvoCgODhbLQ-14">
          <mxGeometry relative="1" as="geometry" />
        </mxCell>
        <mxCell id="OrLhelgsTvvoCgODhbLQ-1" value="&lt;font style=&quot;font-size: 14px;&quot;&gt;feature_extractor&lt;/font&gt;" style="rounded=0;whiteSpace=wrap;html=1;" vertex="1" parent="1">
          <mxGeometry x="340" y="170" width="120" height="60" as="geometry" />
        </mxCell>
        <mxCell id="OrLhelgsTvvoCgODhbLQ-17" style="edgeStyle=orthogonalEdgeStyle;rounded=0;orthogonalLoop=1;jettySize=auto;html=1;exitX=1;exitY=0.5;exitDx=0;exitDy=0;entryX=0;entryY=0.5;entryDx=0;entryDy=0;" edge="1" parent="1" source="OrLhelgsTvvoCgODhbLQ-4" target="OrLhelgsTvvoCgODhbLQ-10">
          <mxGeometry relative="1" as="geometry" />
        </mxCell>
        <mxCell id="OrLhelgsTvvoCgODhbLQ-4" value="&lt;font style=&quot;font-size: 14px;&quot;&gt;encoder&lt;/font&gt;" style="whiteSpace=wrap;html=1;rounded=0;" vertex="1" parent="1">
          <mxGeometry x="740" y="170" width="120" height="60" as="geometry" />
        </mxCell>
        <mxCell id="OrLhelgsTvvoCgODhbLQ-18" style="edgeStyle=orthogonalEdgeStyle;rounded=0;orthogonalLoop=1;jettySize=auto;html=1;exitX=1;exitY=0.5;exitDx=0;exitDy=0;entryX=0;entryY=0.5;entryDx=0;entryDy=0;" edge="1" parent="1" source="OrLhelgsTvvoCgODhbLQ-10" target="OrLhelgsTvvoCgODhbLQ-12">
          <mxGeometry relative="1" as="geometry" />
        </mxCell>
        <mxCell id="OrLhelgsTvvoCgODhbLQ-10" value="&lt;font style=&quot;font-size: 14px;&quot;&gt;2DHeatmap&lt;/font&gt;" style="ellipse;whiteSpace=wrap;html=1;rounded=0;fillColor=#d5e8d4;strokeColor=#82b366;" vertex="1" parent="1">
          <mxGeometry x="960" y="160" width="80" height="80" as="geometry" />
        </mxCell>
        <mxCell id="OrLhelgsTvvoCgODhbLQ-12" value="&lt;font style=&quot;font-size: 14px;&quot;&gt;decoder&lt;/font&gt;" style="whiteSpace=wrap;html=1;rounded=0;" vertex="1" parent="1">
          <mxGeometry x="1140" y="170" width="120" height="60" as="geometry" />
        </mxCell>
        <mxCell id="OrLhelgsTvvoCgODhbLQ-14" value="&lt;font style=&quot;font-size: 14px;&quot;&gt;Wavegram&lt;/font&gt;" style="ellipse;whiteSpace=wrap;html=1;rounded=0;fillColor=#d5e8d4;strokeColor=#82b366;" vertex="1" parent="1">
          <mxGeometry x="560" y="160" width="80" height="80" as="geometry" />
        </mxCell>
        <mxCell id="OrLhelgsTvvoCgODhbLQ-16" value="" style="endArrow=classic;html=1;rounded=0;exitX=1;exitY=0.5;exitDx=0;exitDy=0;entryX=0;entryY=0.5;entryDx=0;entryDy=0;" edge="1" parent="1" source="OrLhelgsTvvoCgODhbLQ-14" target="OrLhelgsTvvoCgODhbLQ-4">
          <mxGeometry width="50" height="50" relative="1" as="geometry">
            <mxPoint x="760" y="560" as="sourcePoint" />
            <mxPoint x="810" y="510" as="targetPoint" />
          </mxGeometry>
        </mxCell>
      </root>
    </mxGraphModel>
  </diagram>
</mxfile>
